<svg width="25" height="25" viewBox="0 0 25 25" fill="none" xmlns="http://www.w3.org/2000/svg">
<path fill-rule="evenodd" clip-rule="evenodd" d="M12.8791 0.956207C15.811 0.956207 18.1878 3.33301 18.1878 6.26495C18.1878 7.33845 17.8692 8.33753 17.3213 9.17278L20.6283 10.299C21.1084 10.4625 21.5281 10.7666 21.8331 11.1718L23.9155 13.9383L23.9175 13.938L23.9422 13.971C24.3612 14.5293 24.2483 15.3216 23.69 15.7406C23.5744 15.8274 23.4447 15.8937 23.3067 15.9366L21.727 16.4281L21.727 21.1461C21.727 21.6855 21.3848 22.1654 20.8749 22.3411L13.7046 24.8176C13.1698 25.0024 12.5884 25.0024 12.0535 24.8176L4.88316 22.3407C4.37332 22.1649 4.03116 21.685 4.03116 21.1457L4.03115 16.4153L2.49356 15.9367C1.82701 15.7293 1.45485 15.0208 1.6623 14.3542C1.69093 14.2622 1.72992 14.174 1.77844 14.0911L1.8842 13.9383L3.96786 11.1717C4.27382 10.7654 4.69518 10.4609 5.17691 10.2979L8.44869 9.19081C7.89357 8.35193 7.57032 7.34619 7.57032 6.26495C7.57032 3.33301 9.94713 0.956207 12.8791 0.956207ZM5.80078 16.9661V20.7835L11.9943 22.9163V17.5598L11.9172 17.7248C11.6496 18.2975 11 18.5844 10.3964 18.3965L5.80078 16.9661ZM15.4038 18.3965L19.9573 16.9789V20.7835L13.7638 22.9163V17.4699L13.8831 17.7251C14.1509 18.2976 14.8004 18.5844 15.4038 18.3965ZM5.15964 12.5319L3.67895 14.4971L10.4808 16.6144L11.3532 14.743L5.15964 12.5319ZM14.4531 14.7337L20.6467 12.5399L22.1212 14.4971L15.3286 16.6113L14.4531 14.7337ZM15.9674 10.5834C15.0974 11.2067 14.0311 11.5737 12.8791 11.5737C11.7376 11.5737 10.6803 11.2134 9.81463 10.6004L7.21777 11.494L12.8857 13.4224L18.5953 11.4879L15.9674 10.5834ZM9.33987 6.26492C9.33987 4.31029 10.9244 2.72575 12.879 2.72575C14.8337 2.72575 16.4182 4.31029 16.4182 6.26492C16.4182 8.21954 14.8337 9.80408 12.879 9.80408C10.9244 9.80408 9.33987 8.21954 9.33987 6.26492Z" fill="#242B42"/>
<path fill-rule="evenodd" clip-rule="evenodd" d="M12.9485 4.05295C13.315 4.05295 13.6121 4.35005 13.6121 4.71654V5.60089L14.4969 5.60114C14.8635 5.60125 15.1605 5.8984 15.1605 6.26492C15.1605 6.63141 14.8634 6.92852 14.4969 6.92852H13.6121V7.81331C13.6121 8.1798 13.315 8.4769 12.9485 8.4769C12.5821 8.4769 12.285 8.1798 12.285 7.81331V6.92852H11.4002C11.0337 6.92852 10.7366 6.63141 10.7366 6.26492C10.7366 5.89843 11.0337 5.60133 11.4002 5.60133H12.285V4.71654C12.285 4.35005 12.5821 4.05295 12.9485 4.05295Z" fill="#242B42"/>
</svg>
