<svg width="24" height="24" viewBox="0 0 24 24" fill="none" xmlns="http://www.w3.org/2000/svg">
<path fill-rule="evenodd" clip-rule="evenodd" d="M8.82343 13.3981V13.6414L8.01891 13.6415L8.00073 13.6417L7.97443 13.6422L7.95755 13.6427L7.94118 13.6434L7.91758 13.6448L7.90246 13.646L7.89509 13.6466L7.88072 13.6481L7.86684 13.6498L7.85344 13.6517L7.84692 13.6528L7.83424 13.6551C7.83009 13.6559 7.82602 13.6567 7.82203 13.6576L7.81028 13.6605C7.70857 13.6868 7.66086 13.7466 7.65221 13.8763L7.6514 13.8912C7.65107 13.8989 7.65087 13.9067 7.65079 13.9148L7.65075 13.9561H8.78025V14.1768H7.65075V14.5871H7.4038V13.923C7.4038 13.6318 7.5118 13.4885 7.72842 13.4306L7.74509 13.4263C7.76196 13.4223 7.77945 13.4187 7.79758 13.4156L7.81591 13.4126L7.83466 13.4099C7.83782 13.4095 7.841 13.409 7.84419 13.4086L7.86357 13.4064C7.8701 13.4057 7.8767 13.405 7.88337 13.4044L7.9057 13.4026L7.92854 13.4011C7.94009 13.4004 7.95182 13.3998 7.96375 13.3994L7.98787 13.3986L8.00011 13.3984L8.02499 13.3981L8.82343 13.3981ZM9.75121 13.3981V14.5871H9.50423V13.3981H9.75121ZM12.0587 13.3981V14.5871H11.8842C11.8784 14.5871 11.8726 14.5871 11.867 14.587L11.8502 14.5866L11.8338 14.586C11.8284 14.5858 11.8231 14.5855 11.8179 14.5852L11.8023 14.584L11.7872 14.5826L11.7798 14.5818L11.7652 14.58C11.6665 14.5662 11.5911 14.5307 11.5086 14.457L11.4964 14.4459C11.4904 14.4402 11.4842 14.4343 11.478 14.4283L11.4656 14.4158L11.4529 14.4027L11.4401 14.3891L11.427 14.3748L11.4137 14.3599L11.4002 14.3444L11.3863 14.3282L11.3722 14.3114L11.3578 14.2939L11.343 14.2758L11.3278 14.2569L11.3043 14.2273L11.2799 14.1961L11.2458 14.152L11.1909 14.08L11.0648 13.9139L11.0214 13.8575L10.9994 13.8291L10.984 13.8097L10.965 13.786L10.9475 13.7648L10.9353 13.7504L10.9275 13.7415L10.9165 13.7291L10.9094 13.7216L10.8993 13.7111L10.8897 13.7017L10.8805 13.6934L10.8746 13.6883L10.8688 13.6837L10.8604 13.6774L10.8549 13.6737L10.8481 13.6696L10.8402 13.6653L10.8335 13.6622L10.8309 13.6611L10.8256 13.6591L10.8203 13.6574L10.8149 13.6559L10.8095 13.6546L10.804 13.6535L10.7984 13.6526L10.7927 13.6519L10.7868 13.6513L10.7778 13.6507L10.7683 13.6503L10.7548 13.6501L10.7496 13.6501V14.5871H10.5026V13.3981L10.6865 13.3981L10.705 13.3984L10.723 13.3989C10.7289 13.3991 10.7348 13.3993 10.7405 13.3997L10.7575 13.4007C10.903 13.4112 10.9967 13.4545 11.101 13.5603L11.1131 13.5728L11.1253 13.5858L11.1376 13.5994C11.1397 13.6018 11.1417 13.6041 11.1438 13.6065L11.1564 13.621L11.1628 13.6285L11.1756 13.6439L11.1954 13.6681L11.2157 13.6938L11.2296 13.7117L11.251 13.7398L11.2732 13.7695L11.3121 13.8223L11.3799 13.9161L11.4698 14.0407L11.5136 14.1005L11.5414 14.1379L11.5618 14.1647L11.5761 14.1832L11.5896 14.2004L11.6024 14.2161L11.6145 14.2307L11.626 14.244L11.6334 14.2522L11.6406 14.2599L11.6475 14.2671L11.6542 14.2739L11.6608 14.2802L11.6672 14.286L11.675 14.2927L11.6841 14.3L11.6916 14.3053L11.6974 14.3092L11.7003 14.311L11.7061 14.3144L11.7119 14.3175L11.7176 14.3202L11.7205 14.3215L11.7263 14.3238L11.732 14.3258L11.7393 14.328L11.7467 14.3298L11.7527 14.3311L11.7589 14.3321L11.7651 14.3329L11.7715 14.3336L11.7781 14.3341L11.7882 14.3347L11.8024 14.335L11.8117 14.335V13.3981H12.0587ZM16.5963 13.3981V14.5871H16.4219C16.4161 14.5871 16.4103 14.5871 16.4046 14.587L16.3878 14.5866L16.3715 14.586C16.3661 14.5858 16.3608 14.5855 16.3555 14.5852L16.34 14.584L16.3249 14.5826L16.3174 14.5818L16.3028 14.58C16.2571 14.5736 16.2164 14.5625 16.1776 14.5452L16.1654 14.5395C16.1493 14.5316 16.1334 14.5226 16.1176 14.5123L16.1058 14.5043C16.0742 14.4824 16.0427 14.4554 16.0095 14.4221L15.9938 14.406L15.9777 14.3891L15.9581 14.3674L15.9446 14.3522L15.931 14.3364L15.917 14.3199L15.8954 14.2939L15.8806 14.2758L15.8578 14.2472L15.834 14.2171L15.7922 14.1633L15.7566 14.1169L15.5894 13.8968L15.5478 13.843L15.5217 13.8097L15.5027 13.786L15.4894 13.7698L15.473 13.7504L15.4614 13.7372L15.4506 13.7253L15.4403 13.7145L15.4337 13.7079L15.4273 13.7017L15.4212 13.6961L15.4152 13.6908L15.4093 13.686L15.4036 13.6815L15.3981 13.6774L15.3926 13.6737L15.3858 13.6696L15.3778 13.6653L15.3712 13.6622L15.3686 13.6611L15.3633 13.6591L15.358 13.6574L15.3526 13.6559L15.3472 13.6546L15.3417 13.6535L15.3361 13.6526L15.3304 13.6519L15.3245 13.6513L15.3154 13.6507L15.3059 13.6503L15.2925 13.6501L15.2872 13.6501V14.5871H15.0403V13.3981L15.2242 13.3981L15.2427 13.3984L15.2607 13.3989C15.2666 13.3991 15.2724 13.3993 15.2782 13.3997L15.2952 13.4007C15.3931 13.4078 15.4675 13.4297 15.5376 13.4756L15.5495 13.4836L15.5614 13.4922C15.5713 13.4996 15.5812 13.5074 15.591 13.5158L15.6029 13.5261C15.6167 13.5385 15.6306 13.5519 15.6447 13.5665L15.6568 13.5792L15.6691 13.5926L15.6815 13.6065L15.6941 13.621L15.7068 13.6361L15.7133 13.6439L15.733 13.6681L15.7465 13.6851L15.7603 13.7027L15.7815 13.7303L15.796 13.7495L15.8184 13.7797L15.8497 13.8223L15.8827 13.8677L16.0141 14.0498L16.0512 14.1005L16.079 14.1379L16.0894 14.1516L16.109 14.1772L16.1228 14.1948L16.14 14.2161L16.1522 14.2307L16.1599 14.2397L16.1674 14.2481L16.1747 14.2561L16.1817 14.2636L16.1886 14.2705L16.1952 14.2771L16.2033 14.2846L16.2111 14.2914L16.2173 14.2965L16.2263 14.3033L16.2322 14.3073L16.238 14.311L16.2467 14.316L16.2524 14.3189L16.2582 14.3215L16.2639 14.3238L16.2697 14.3258L16.277 14.328L16.2844 14.3298L16.2904 14.3311L16.2965 14.3321L16.3028 14.3329L16.3092 14.3336L16.3157 14.3341L16.3259 14.3347L16.3401 14.335L16.3493 14.335V13.3981H16.5963ZM18.7987 13.3981V13.6397H17.8644C17.6734 13.6397 17.5955 13.6966 17.565 13.8034L17.5621 13.8143L17.5595 13.8255C17.5587 13.8292 17.5579 13.8331 17.5572 13.837L17.5552 13.8488L17.5534 13.861L17.5519 13.8735L17.5506 13.8863L17.5495 13.8994L17.5486 13.9129L17.5479 13.9267L17.5473 13.9407L17.547 13.9552L17.5466 13.9774L17.5466 14.0002L17.5468 14.0226L17.5473 14.0443L17.5479 14.0584L17.5486 14.0722L17.5495 14.0856L17.5506 14.0987L17.5519 14.1115L17.5534 14.124L17.5552 14.1361L17.5572 14.1479C17.5767 14.2526 17.6293 14.3171 17.7628 14.337L17.778 14.3391C17.8038 14.3422 17.8325 14.3437 17.8644 14.3437H18.7987V14.5871H17.8644C17.4523 14.5871 17.3034 14.3957 17.2948 14.0273L17.2945 14.0042V13.9809L17.2948 13.9579C17.3034 13.5894 17.4523 13.3981 17.8644 13.3981H18.7987ZM19.7386 13.3981V14.5871H19.4916V13.3981H19.7386ZM13.5495 13.3807C13.6958 13.3807 13.7823 13.4354 13.8478 13.5217L13.857 13.5342C13.8616 13.5406 13.866 13.5471 13.8704 13.5538L13.879 13.5673L13.8874 13.5813L13.8956 13.5956L13.9037 13.6102L13.9156 13.6328L14.4009 14.5871H14.1349L13.9847 14.2933H13.1143L12.964 14.5871H12.6998L13.1833 13.6328C13.1859 13.6277 13.1885 13.6226 13.1911 13.6176L13.199 13.6028C13.2016 13.598 13.2042 13.5933 13.2069 13.5886L13.2149 13.5748C13.2843 13.4584 13.375 13.3807 13.5495 13.3807ZM21.2291 13.3807C21.393 13.3807 21.4819 13.4493 21.5502 13.5541L21.5586 13.5673L21.567 13.5813C21.5712 13.5883 21.5753 13.5955 21.5793 13.6028L21.5874 13.6176L21.5953 13.6328L22.0806 14.5871H21.8146L21.6643 14.2933H20.7939L20.6437 14.5871H20.3794L20.8668 13.6252L20.8746 13.6102L20.8786 13.6028L20.8866 13.5884C20.8959 13.572 20.9056 13.5563 20.9158 13.5415L20.9246 13.529C20.9905 13.4385 21.0787 13.3807 21.2291 13.3807ZM22.8892 13.3981V14.0951L22.8893 14.1097C22.8894 14.1144 22.8896 14.1191 22.8898 14.1236L22.8905 14.1371C22.8907 14.1393 22.8908 14.1415 22.891 14.1436L22.8922 14.1563C22.9047 14.2683 22.9571 14.319 23.0816 14.3364L23.0958 14.3382L23.1143 14.34L23.1338 14.3415L23.1542 14.3426L23.1757 14.3433L23.1936 14.3436L23.2121 14.3437H23.9996V14.5871H23.2121C23.1965 14.5871 23.1812 14.5869 23.1663 14.5864L23.1441 14.5856L23.1225 14.5844C23.1121 14.5838 23.1019 14.583 23.0919 14.5821L23.0721 14.5802C23.0656 14.5795 23.0591 14.5787 23.0528 14.5779L23.0339 14.5753C22.7668 14.5356 22.6422 14.3919 22.6422 14.0951V13.3981H22.8892ZM6.0787 13.9269V14.1755H0V13.9269H6.0787ZM13.5495 13.6015C13.4856 13.6015 13.4528 13.6328 13.4268 13.6831L13.2265 14.0725H13.8707L13.6721 13.6831C13.6462 13.6328 13.6134 13.6015 13.5495 13.6015ZM21.2291 13.6015C21.1652 13.6015 21.1324 13.6328 21.1065 13.6831L20.9062 14.0725H21.5504L21.3517 13.6831C21.3258 13.6328 21.293 13.6015 21.2291 13.6015ZM10.0291 9.43981C10.7717 9.43981 11.2314 9.77795 11.2314 10.3875C11.2314 10.8146 11.006 11.0771 10.6126 11.1927L10.6402 11.2283L10.6837 11.2836L10.729 11.3406L10.7754 11.3985L10.8377 11.4757L10.899 11.5512L10.9719 11.6403L11.0252 11.705C11.1112 11.8094 11.238 11.909 11.3723 11.9133L11.3815 11.9135H15.7714V12.4831L11.264 12.483C10.9301 12.483 10.6165 12.3227 10.4196 12.0519L10.4117 12.0409L10.0159 11.482H8.03564V12.483H7.40357V10.9169H10.0777C10.3811 10.9169 10.5205 10.7599 10.5671 10.5958L10.5705 10.5832C10.5727 10.5748 10.5746 10.5663 10.5763 10.5579L10.5786 10.5453L10.5806 10.5327C10.5819 10.5243 10.5829 10.5159 10.5837 10.5077L10.5847 10.4952C10.5853 10.487 10.5857 10.4788 10.5859 10.4707L10.5861 10.4587L10.5859 10.4466C10.5857 10.4385 10.5853 10.4304 10.5847 10.4222L10.5837 10.4099C10.5829 10.4017 10.5819 10.3934 10.5806 10.3852L10.5786 10.3728C10.5735 10.3438 10.5657 10.3147 10.5547 10.2864L10.5498 10.2743C10.5489 10.2723 10.5481 10.2703 10.5472 10.2683L10.5417 10.2563C10.4789 10.1256 10.3425 10.0171 10.0893 10.0139L10.0777 10.0138H7.40357V10.0138H6.07852V12.483H5.44646V10.0138H4.18818V9.43981H10.0291ZM20.2757 9.43981C20.4358 9.43981 20.534 9.4959 20.6097 9.56832L20.6206 9.57903C20.6224 9.58084 20.6242 9.58265 20.626 9.58447L20.6365 9.59548L20.6467 9.60665L20.6567 9.61796L20.6666 9.62938L20.6762 9.64088L20.6904 9.65821L20.7044 9.67558L21.7 11.2283L22.9741 9.65243L22.9884 9.63512L22.9981 9.62366L23.0081 9.61229L23.0182 9.60104L23.0286 9.58995C23.0303 9.58812 23.0321 9.58629 23.0338 9.58447L23.0446 9.57365C23.1193 9.50045 23.2154 9.44262 23.3725 9.43991L23.3841 9.43981H23.9985V12.483H23.3797V10.1116L21.9604 11.9135H21.4396L19.8085 9.43981H20.2757ZM3.63336 9.43981V10.0093L1.10766 10.0141L1.0867 10.0144C1.07979 10.0145 1.07295 10.0147 1.06619 10.0149L1.04613 10.0157L1.02653 10.0168L1.0074 10.0182C1.00425 10.0184 1.00112 10.0187 0.998003 10.019L0.979566 10.0208L0.9616 10.0229L0.944106 10.0253C0.94123 10.0257 0.938374 10.0261 0.935538 10.0266L0.918761 10.0294C0.916005 10.0299 0.913269 10.0304 0.910553 10.031L0.8945 10.0343C0.741667 10.0678 0.657064 10.1458 0.654241 10.2867L0.654167 10.294C0.654167 10.3972 0.696931 10.4705 0.842659 10.5211L0.857327 10.526C0.862328 10.5276 0.867442 10.5292 0.872672 10.5308L0.888706 10.5354L0.905443 10.5399L0.922894 10.5442L0.941074 10.5484L0.959994 10.5524L0.979667 10.5563C0.983009 10.557 0.986384 10.5576 0.98979 10.5583L1.01062 10.562L1.03223 10.5656L1.05464 10.569C1.05844 10.5696 1.06228 10.5701 1.06615 10.5707L1.08978 10.574L1.11424 10.5771C1.11838 10.5776 1.12256 10.5781 1.12678 10.5786L1.15251 10.5816C1.15687 10.582 1.16126 10.5825 1.1657 10.583L1.19272 10.5857L1.22063 10.5884L1.24942 10.5909L2.65649 10.7034C3.36815 10.7612 3.82785 10.9881 3.82785 11.6021C3.82785 12.1181 3.50073 12.483 2.64766 12.483H2.537e-06V11.9135H2.68744C2.69543 11.9135 2.7033 11.9134 2.71105 11.9133L2.73397 11.9128C2.74525 11.9125 2.75628 11.9121 2.76706 11.9115L2.78828 11.9103C2.79524 11.9098 2.80209 11.9093 2.80884 11.9087L2.82874 11.9069C2.832 11.9065 2.83524 11.9062 2.83845 11.9058L2.85738 11.9035C3.05593 11.8774 3.14597 11.8015 3.17072 11.6963L3.17285 11.6864C3.1764 11.668 3.17807 11.6488 3.17807 11.6288C3.17807 11.5013 3.10786 11.4136 2.95038 11.3569L2.9346 11.3514C2.93193 11.3505 2.92923 11.3497 2.9265 11.3488L2.90988 11.3436L2.89269 11.3386L2.87491 11.3338C2.86588 11.3315 2.85664 11.3292 2.84717 11.327L2.82794 11.3227L2.80813 11.3186C2.80478 11.3179 2.8014 11.3173 2.798 11.3166L2.7773 11.3128L2.756 11.3091L2.7341 11.3056C2.7304 11.3051 2.72667 11.3045 2.72292 11.3039L2.70011 11.3007L2.67669 11.2977L2.65266 11.2948L2.62801 11.2922L2.60274 11.2897L2.57685 11.2873C2.57248 11.2869 2.56808 11.2866 2.56366 11.2862L1.1006 11.1705C0.419901 11.1171 0.0132457 10.8724 0.0132457 10.3118C0.0132457 9.66674 0.552535 9.43981 1.17575 9.43981H3.63336ZM18.3772 9.39532C18.8013 9.39532 19.0292 9.57481 19.2047 9.84795L19.2175 9.8681L19.2301 9.88858L19.2425 9.90938C19.2466 9.91637 19.2507 9.9234 19.2548 9.93049L19.2669 9.95191L19.2789 9.97362L19.2908 9.99562L19.3026 10.0179L19.3143 10.0405L20.5563 12.483H19.8756L19.5844 11.9135H17.17L16.8788 12.483H16.2025L17.4458 10.0291L17.4573 10.0067L17.469 9.98458L17.4807 9.96273L17.4926 9.94116C17.4986 9.93045 17.5046 9.91986 17.5107 9.90938L17.523 9.88858C17.5271 9.8817 17.5312 9.87488 17.5354 9.8681L17.5481 9.84795C17.5523 9.84129 17.5566 9.83468 17.5609 9.82813L17.574 9.80866C17.5828 9.79579 17.5917 9.78315 17.6008 9.77076L17.6146 9.75235C17.7814 9.5337 18.0048 9.39532 18.3772 9.39532ZM15.7714 9.43981V10.0138H13.3757C12.8189 10.0138 12.6293 10.2418 12.5718 10.6054L12.5683 10.6288L12.5652 10.6525C12.5647 10.6565 12.5642 10.6605 12.5637 10.6646L12.5624 10.6767H15.7714V11.2461L11.9289 11.2478C11.921 11.1571 11.917 11.0618 11.917 10.9614C11.917 9.97039 12.2853 9.45027 13.3434 9.43996L13.3757 9.43981H15.7714ZM18.3772 9.96033C18.2136 9.96033 18.1297 10.0405 18.0634 10.1694L17.5506 11.1661H17.552L17.5111 11.2462H19.2416L19.0307 10.8354L18.691 10.1694L18.6831 10.1545C18.618 10.0343 18.5343 9.96033 18.3772 9.96033Z" fill="#242B42"/>
</svg>
