<svg width="24" height="24" viewBox="0 0 24 24" fill="none" xmlns="http://www.w3.org/2000/svg">
<path fill-rule="evenodd" clip-rule="evenodd" d="M21.8205 4.85446C21.8205 4.69397 21.6907 4.56358 21.5302 4.56358C21.3697 4.56358 21.24 4.69397 21.24 4.85446C21.24 5.01437 21.3697 5.14468 21.5302 5.14468C21.6907 5.14468 21.8205 5.01437 21.8205 4.85446ZM21.8911 4.85446C21.8911 5.05366 21.7294 5.21528 21.5302 5.21528C21.331 5.21528 21.1694 5.05366 21.1694 4.85446C21.1694 4.65526 21.331 4.49363 21.5302 4.49363C21.7294 4.49363 21.8911 4.65526 21.8911 4.85446ZM21.606 4.7941C21.6094 4.7662 21.5894 4.74115 21.5615 4.7383C21.5576 4.73773 21.5536 4.73773 21.5502 4.7383H21.4671V4.83908H21.5502C21.5781 4.84193 21.6031 4.822 21.606 4.7941ZM21.689 5.04227H21.5974L21.5245 4.90904H21.4665V5.04227H21.3868V4.66778H21.5621C21.6401 4.66778 21.6873 4.71895 21.6873 4.78841C21.6907 4.84079 21.6561 4.88797 21.6048 4.89936L21.689 5.04227ZM21.8911 6.95449V13.673C21.8911 13.7908 21.8341 13.9018 21.738 13.9695L21.7272 13.9769L12.0003 20.8707V23.7403C12.0003 23.7943 11.9832 23.8466 11.9519 23.8905C11.8694 24.0077 11.7072 24.035 11.5905 23.952L2.27279 17.349L2.2614 17.341C2.16582 17.2733 2.10889 17.1628 2.10889 17.0456V10.326C2.10889 10.2082 2.16582 10.0978 2.26197 10.0295L2.27279 10.0221L12.0003 3.12939V0.259874C12.0003 0.205865 12.0168 0.153482 12.0481 0.109639C12.1306 -0.00757196 12.2928 -0.0349023 12.4095 0.0475767L21.7272 6.65118L21.7385 6.65915C21.8341 6.72682 21.8911 6.83728 21.8911 6.95449Z" fill="#242B42"/>
</svg>
