<svg width="24" height="24" viewBox="0 0 24 24" fill="none" xmlns="http://www.w3.org/2000/svg">
<path d="M16.1621 4.06976L13.1215 11.0888L12.7939 4.06976H7.75691L4.58321 11.4083C5.93459 12.1195 7.3474 12.7482 8.80116 13.2738H8.8114L9.10829 12.5833L9.11853 13.3872C11.2665 14.1431 13.5115 14.7036 15.8372 15.1099V10.657C15.8372 9.72395 16.5901 8.93023 17.564 8.93023H19.1063L21.2093 4.08007H16.1621V4.06976Z" fill="#242B42"/>
<path d="M19.8023 17.3721C20.1421 17.3721 20.4419 17.6719 20.4419 18.0116C20.4419 18.3714 20.1421 18.6512 19.8023 18.6512C19.4426 18.6512 19.1628 18.3714 19.1628 18.0116C19.1628 17.6719 19.4426 17.3721 19.8023 17.3721Z" fill="#242B42"/>
<path d="M21.4012 11.5363V16.8125C21.4012 16.9524 21.2812 17.0523 21.1613 17.0523H18.4433C18.3034 17.0523 18.2035 16.9524 18.2035 16.8125V11.5363C18.2035 11.4164 18.3034 11.2965 18.4433 11.2965H21.1613C21.2812 11.2965 21.4012 11.4164 21.4012 11.5363Z" fill="#242B42"/>
<path fill-rule="evenodd" clip-rule="evenodd" d="M16.6047 10.657C16.6047 10.1374 17.0243 9.69767 17.564 9.69767H22.0407C22.5603 9.69767 23 10.1374 23 10.657V18.9709C23 19.5105 22.5603 19.9302 22.0407 19.9302H17.564C17.0243 19.9302 16.6047 19.5105 16.6047 18.9709V10.657ZM17.6839 10.657C17.6039 10.657 17.564 10.7169 17.564 10.7769V18.851C17.564 18.931 17.6039 18.9709 17.6839 18.9709H21.9208C21.9807 18.9709 22.0407 18.931 22.0407 18.851V10.7769C22.0407 10.7169 21.9807 10.657 21.9208 10.657H17.6839Z" fill="#242B42"/>
<path d="M9.11853 14.1087C11.2383 14.9482 13.5553 15.6388 15.8372 16.0928V16.4195L14.4319 19.6641H9.15948L9.11853 14.1087Z" fill="#242B42"/>
<path d="M8.50426 13.8613C6.99932 13.2326 5.60698 12.5317 4.41941 11.7896L1 19.6744H6.03697L8.54522 13.8819C8.5374 13.878 8.53107 13.8741 8.52566 13.8707C8.51692 13.8653 8.51059 13.8613 8.50426 13.8613Z" fill="#242B42"/>
</svg>
