<svg width="24" height="24" viewBox="0 0 24 24" fill="none" xmlns="http://www.w3.org/2000/svg">
<path d="M20.6599 16.889C20.5457 16.889 20.4696 16.8129 20.4696 16.6987C20.4696 16.5845 20.5457 16.5084 20.6599 16.5084C21.8587 16.5084 22.8483 17.4979 22.8483 18.6968C22.8483 18.8109 22.7722 18.8871 22.658 18.8871C22.5438 18.8871 22.4677 18.8109 22.4677 18.6968C22.4677 17.6882 21.6494 16.889 20.6599 16.889Z" fill="#242B42"/>
<path fill-rule="evenodd" clip-rule="evenodd" d="M21.1356 18.6968C21.1356 18.4304 20.9263 18.221 20.6599 18.221C20.3935 18.221 20.1842 18.4304 20.1842 18.6968C20.1842 18.9632 20.3935 19.1725 20.6599 19.1725C20.9263 19.1725 21.1356 18.9632 21.1356 18.6968ZM20.755 18.6968C20.755 18.7539 20.717 18.7919 20.6599 18.7919C20.6028 18.7919 20.5647 18.7539 20.5647 18.6968C20.5647 18.6397 20.6028 18.6016 20.6599 18.6016C20.717 18.6016 20.755 18.6397 20.755 18.6968Z" fill="#242B42"/>
<path fill-rule="evenodd" clip-rule="evenodd" d="M20.6599 17.3266C21.4211 17.3266 22.03 17.9356 22.03 18.6968C22.03 19.4579 21.4211 20.0669 20.6599 20.0669C19.8987 20.0669 19.2898 19.4579 19.2898 18.6968C19.2898 17.9356 19.8987 17.3266 20.6599 17.3266ZM20.6599 19.6863C21.2118 19.6863 21.6494 19.2486 21.6494 18.6968C21.6494 18.1449 21.2118 17.7072 20.6599 17.7072C20.108 17.7072 19.6704 18.1449 19.6704 18.6968C19.6704 19.2486 20.108 19.6863 20.6599 19.6863Z" fill="#242B42"/>
<path fill-rule="evenodd" clip-rule="evenodd" d="M6.96063 5.42729H17.4606V16.0946H6.96063V5.42729ZM12.9422 10.0169H17.0823V5.80573H12.9422V10.0169ZM12.5639 15.7163H11.8574V11.1017H7.33908V10.3951H11.8574V5.80559H12.5639V10.3951H17.0823V11.1016H12.5639V15.7163ZM11.4791 10.0168V5.80559H7.33908V10.0168H11.4791ZM7.33893 11.48H11.479V15.7163H7.33893V11.48ZM12.9422 11.48V15.7163H17.0823V11.48H12.9422Z" fill="#242B42"/>
<path fill-rule="evenodd" clip-rule="evenodd" d="M18.9904 2.18909H5.37179C5.07929 2.18909 4.84218 2.4262 4.84218 2.7187V3.17265C4.84218 3.43946 5.03947 3.66019 5.29613 3.6969V4.14109C5.29613 4.43359 5.53325 4.67071 5.82574 4.67071H5.9014V16.7761H5.71517C5.44195 16.7761 5.22047 17.0133 5.22047 17.3058V17.8161C5.00451 17.8659 4.84217 18.0792 4.84217 18.3347V18.7887C4.84217 19.0812 5.05485 19.3183 5.31719 19.3183H17.5318C17.567 19.3183 17.6012 19.314 17.6342 19.306V20.2381H14.9511V20.1049C14.9511 19.9908 14.875 19.9146 14.7608 19.9146C14.6466 19.9146 14.5705 20.0098 14.5705 20.1049V20.5591H6.47153L7.01872 20.0119C7.09259 19.9381 7.09259 19.8183 7.01872 19.7444C6.94485 19.6706 6.82509 19.6706 6.75122 19.7444L5.91554 20.5801C5.86938 20.6263 5.85207 20.6904 5.8636 20.75C5.85207 20.8096 5.86938 20.8737 5.91555 20.9198L6.75123 21.7555C6.82509 21.8294 6.94485 21.8294 7.01872 21.7555C7.09259 21.6816 7.09259 21.5619 7.01872 21.488L6.46811 20.9374H14.5705V21.5321C14.5705 21.6463 14.6466 21.7224 14.7608 21.7224H23.4953C23.6095 21.7224 23.6856 21.6463 23.6856 21.5321V18.6968C23.6856 17.084 22.4324 15.7713 20.8441 15.6766V5.28209L21.4291 5.86711C21.5029 5.94097 21.6227 5.94097 21.6966 5.86711C21.7704 5.79324 21.7704 5.67348 21.6966 5.59961L20.8609 4.76393C20.8147 4.71777 20.7506 4.70045 20.691 4.71199C20.6314 4.70045 20.5673 4.71777 20.5212 4.76393L19.6855 5.59961C19.6116 5.67348 19.6116 5.79324 19.6855 5.86711C19.7594 5.94097 19.8791 5.94097 19.953 5.86711L20.4658 5.35432V15.6772C19.6893 15.726 18.9936 16.066 18.4861 16.5895V4.67071H18.5365C18.829 4.67071 19.0661 4.43359 19.0661 4.14109V3.6969C19.3227 3.66019 19.52 3.43946 19.52 3.17265V2.7187C19.52 2.4262 19.2829 2.18909 18.9904 2.18909ZM18.0329 17.1916C18.0079 17.1687 17.9753 17.1548 17.9397 17.1544L5.81871 17.1544C5.73902 17.1544 5.67443 17.2222 5.67443 17.3057V17.7597H17.7814C17.8459 17.5604 17.9306 17.3702 18.0329 17.1916ZM18.0735 18.138H18.0825V18.0972C18.3528 16.9226 19.401 16.0517 20.6599 16.0517C22.1252 16.0517 23.305 17.2315 23.305 18.6968V21.3418H18.0148V18.6968C18.0148 18.5049 18.035 18.318 18.0735 18.138ZM17.6773 18.1834H5.35781C5.28196 18.1834 5.22047 18.2511 5.22047 18.3347V18.7887C5.22047 18.8722 5.28196 18.94 5.35781 18.94H17.6342V18.6968C17.6342 18.5217 17.649 18.3502 17.6773 18.1834ZM17.5895 16.7761H18.1078V4.74636H6.2797V16.7761L17.5878 16.7761L17.5895 16.7761ZM5.30575 3.30884H19.0565C19.1069 3.28432 19.1417 3.23255 19.1417 3.17266V2.7187C19.1417 2.63513 19.074 2.56739 18.9904 2.56739H5.37179C5.28822 2.56739 5.22047 2.63513 5.22047 2.7187V3.17266C5.22047 3.23255 5.25527 3.28432 5.30575 3.30884ZM5.67443 4.1411V3.70227H18.6878V4.1411C18.6878 4.22467 18.62 4.29241 18.5365 4.29241H5.82575C5.74218 4.29241 5.67443 4.22467 5.67443 4.1411ZM14.9511 21.3418H15.1223V21.2086C15.1223 21.0945 15.1985 21.0183 15.3126 21.0183C15.4268 21.0183 15.5029 21.0945 15.5029 21.2086V21.3418H15.7313V21.2086C15.7313 21.0945 15.8074 21.0183 15.9216 21.0183C16.0358 21.0183 16.1119 21.0945 16.1119 21.2086V21.3418H16.3402V21.2086C16.3402 21.0945 16.4163 21.0183 16.5305 21.0183C16.6447 21.0183 16.7208 21.0945 16.7208 21.2086V21.3418H16.9492V21.2086C16.9492 21.0945 17.0253 21.0183 17.1395 21.0183C17.2536 21.0183 17.3298 21.0945 17.3298 21.2086V21.3418H17.6342V20.6187H14.9511V21.3418Z" fill="#242B42"/>
<path d="M3.29117 5.28209L3.87618 5.86711C3.95005 5.94097 4.06981 5.94097 4.14368 5.86711C4.21754 5.79324 4.21754 5.67348 4.14368 5.59961L3.308 4.76393C3.26183 4.71777 3.19775 4.70045 3.13814 4.71199C3.07853 4.70045 3.01444 4.71777 2.96827 4.76393L2.13259 5.59961C2.05872 5.67348 2.05872 5.79324 2.13259 5.86711C2.20646 5.94097 2.32622 5.94097 2.40009 5.86711L2.91287 5.35432V15.869L2.40009 15.3562C2.32622 15.2823 2.20646 15.2823 2.13259 15.3562C2.05872 15.4301 2.05872 15.5498 2.13259 15.6237L2.96827 16.4594C3.01444 16.5055 3.07852 16.5228 3.13813 16.5113C3.19774 16.5228 3.26183 16.5055 3.308 16.4594L4.14368 15.6237C4.21754 15.5498 4.21754 15.4301 4.14368 15.3562C4.06981 15.2823 3.95005 15.2823 3.87618 15.3562L3.29117 15.9412V5.28209Z" fill="#242B42"/>
<path d="M23.084 12.2447V12.5932C23.084 12.6976 23.1687 12.7823 23.2732 12.7823C23.3777 12.7823 23.4623 12.6976 23.4623 12.5932V12.2447H23.8109C23.9153 12.2447 24 12.16 24 12.0555C24 11.951 23.9153 11.8664 23.8109 11.8664H23.4623V11.5178C23.4623 11.4134 23.3777 11.3287 23.2732 11.3287C23.1687 11.3287 23.084 11.4134 23.084 11.5178V11.8664H22.7355C22.6311 11.8664 22.5464 11.951 22.5464 12.0555C22.5464 12.16 22.6311 12.2447 22.7355 12.2447H23.084Z" fill="#242B42"/>
<path d="M22.4707 9.21025C22.5961 9.21025 22.6977 9.10863 22.6977 8.98327C22.6977 8.85792 22.5961 8.7563 22.4707 8.7563C22.3454 8.7563 22.2438 8.85792 22.2438 8.98327C22.2438 9.10863 22.3454 9.21025 22.4707 9.21025Z" fill="#242B42"/>
<path d="M5.14481 7.31877C5.14481 7.44413 5.04319 7.54575 4.91784 7.54575C4.79248 7.54575 4.69086 7.44413 4.69086 7.31877C4.69086 7.19342 4.79248 7.0918 4.91784 7.0918C5.04319 7.0918 5.14481 7.19342 5.14481 7.31877Z" fill="#242B42"/>
<path d="M0.537657 13.6524V13.3039H0.189148C0.0846842 13.3039 0 13.2192 0 13.1147C0 13.0103 0.0846842 12.9256 0.189148 12.9256H0.537657V12.5771C0.537657 12.4726 0.622341 12.3879 0.726805 12.3879C0.831268 12.3879 0.915952 12.4726 0.915952 12.5771V12.9256H1.26446C1.36893 12.9256 1.45361 13.0103 1.45361 13.1147C1.45361 13.2192 1.36893 13.3039 1.26446 13.3039H0.915952V13.6524C0.915952 13.7568 0.831268 13.8415 0.726805 13.8415C0.622341 13.8415 0.537657 13.7568 0.537657 13.6524Z" fill="#242B42"/>
</svg>
