<svg width="24" height="24" viewBox="0 0 24 24" fill="none" xmlns="http://www.w3.org/2000/svg">
<path fill-rule="evenodd" clip-rule="evenodd" d="M19.2299 1.4936C19.1992 1.07781 18.8522 0.75 18.4285 0.75H5.57139L5.51142 0.752204C5.09563 0.78288 4.76782 1.12994 4.76782 1.55357V22.4464L4.77003 22.5064C4.8007 22.9222 5.14777 23.25 5.57139 23.25H18.4285L18.4885 23.2478C18.9043 23.2171 19.2321 22.8701 19.2321 22.4464V1.55357L19.2299 1.4936ZM6.37499 2.35716H17.625V21.6429H6.37499V2.35716Z" fill="#242B42"/>
<path fill-rule="evenodd" clip-rule="evenodd" d="M16.4174 15.9579C16.3867 15.5421 16.0396 15.2143 15.616 15.2143H8.38385L8.32388 15.2165C7.90809 15.2471 7.58028 15.5942 7.58028 16.0178V20.0357L7.58248 20.0957C7.61316 20.5115 7.96022 20.8393 8.38385 20.8393H15.616L15.676 20.8371C16.0918 20.8064 16.4196 20.4593 16.4196 20.0357V16.0178L16.4174 15.9579ZM9.18744 16.8214H14.8124V19.2321H9.18744V16.8214Z" fill="#242B42"/>
<path d="M16.4196 12.8036C16.8634 12.8036 17.2231 13.1633 17.2231 13.6071C17.2231 14.0509 16.8634 14.4107 16.4196 14.4107C15.9758 14.4107 15.616 14.0509 15.616 13.6071C15.616 13.1633 15.9758 12.8036 16.4196 12.8036Z" fill="#242B42"/>
<path fill-rule="evenodd" clip-rule="evenodd" d="M16.4196 4.36608C16.4196 3.92228 16.0598 3.56251 15.616 3.56251H8.38385C7.94005 3.56251 7.58028 3.92228 7.58028 4.36608V11.1964C7.58028 11.6402 7.94005 12 8.38385 12H15.616C16.0598 12 16.4196 11.6402 16.4196 11.1964V4.36608ZM9.18744 5.16962H14.8124V10.3928H9.18744V5.16962Z" fill="#242B42"/>
</svg>
