<svg width="24" height="24" viewBox="0 0 24 24" fill="none" xmlns="http://www.w3.org/2000/svg">
<path fill-rule="evenodd" clip-rule="evenodd" d="M21.8205 4.85446C21.8205 4.69397 21.6907 4.56358 21.5302 4.56358C21.3697 4.56358 21.24 4.69397 21.24 4.85446C21.24 5.01437 21.3697 5.14468 21.5302 5.14468C21.6907 5.14468 21.8205 5.01437 21.8205 4.85446ZM21.8911 4.85446C21.8911 5.05366 21.7294 5.21528 21.5302 5.21528C21.331 5.21528 21.1694 5.05366 21.1694 4.85446C21.1694 4.65526 21.331 4.49363 21.5302 4.49363C21.7294 4.49363 21.8911 4.65526 21.8911 4.85446ZM21.606 4.7941C21.6094 4.7662 21.5894 4.74115 21.5615 4.7383C21.5576 4.73773 21.5536 4.73773 21.5502 4.7383H21.4671V4.83908H21.5502C21.5781 4.84193 21.6031 4.822 21.606 4.7941ZM21.689 5.04227H21.5974L21.5245 4.90904H21.4665V5.04227H21.3868V4.66778H21.5621C21.6401 4.66778 21.6873 4.71895 21.6873 4.78841C21.6907 4.84079 21.6561 4.88797 21.6048 4.89936L21.689 5.04227ZM8.76479 12.755C8.76479 13.5114 8.68223 13.8631 8.1911 13.9502C7.69996 14.0373 7.61683 13.7139 7.61683 12.9576C7.61683 12.2007 7.69996 11.8484 8.1911 11.7619C8.68223 11.6754 8.76479 11.9981 8.76479 12.755ZM8.76479 12.755C8.76479 13.5114 8.68223 13.8631 8.1911 13.9502C7.69996 14.0373 7.61683 13.7139 7.61683 12.9576C7.61683 12.2007 7.69996 11.8484 8.1911 11.7619C8.68223 11.6754 8.76479 11.9981 8.76479 12.755ZM8.76479 12.755C8.76479 13.5114 8.68223 13.8631 8.1911 13.9502C7.69996 14.0373 7.61683 13.7139 7.61683 12.9576C7.61683 12.2007 7.69996 11.8484 8.1911 11.7619C8.68223 11.6754 8.76479 11.9981 8.76479 12.755ZM19.5161 10.1609C19.5161 10.3351 19.49 10.4842 19.1678 10.5411L18.7114 10.6214V9.9936L19.1678 9.9134C19.49 9.85647 19.5161 9.9919 19.5161 10.1609ZM20.7841 12.4607L19.9783 11.0727L20.0016 11.0544C20.3118 10.8138 20.4443 10.4973 20.4443 9.99645C20.4443 9.19517 20.0198 8.8969 19.1081 9.05795L17.7979 9.28904C17.7883 9.29074 17.7803 9.29644 17.7752 9.30498C17.7695 9.31238 17.7672 9.32149 17.7689 9.3306L17.8213 9.56283V12.7516L17.7689 13.002C17.7672 13.0105 17.7695 13.0191 17.7752 13.0259C17.7809 13.0316 17.7894 13.0344 17.7979 13.0327L18.6812 12.8768C18.6977 12.8734 18.7103 12.8591 18.7108 12.8415V11.4921L19.0648 11.4289L19.6533 12.5234L19.622 12.6747C19.6197 12.6833 19.622 12.6918 19.6277 12.6987C19.634 12.7043 19.6425 12.7072 19.6505 12.7055L19.7677 12.6838L20.7586 12.5091C20.7699 12.5069 20.779 12.5 20.7841 12.4903C20.7892 12.4812 20.7892 12.4698 20.7841 12.4607ZM17.0051 9.46148C17.0051 9.45921 17.0051 9.4575 17.0046 9.45522C17.0017 9.44212 16.9886 9.43358 16.975 9.437L14.5602 9.86217C14.5511 9.86387 14.5431 9.86957 14.5374 9.87697C14.5323 9.88437 14.53 9.89405 14.5317 9.90316L14.5836 10.1336V13.3253L14.5317 13.574C14.5295 13.5825 14.5317 13.591 14.5374 13.5973C14.5437 13.6036 14.5522 13.6064 14.5602 13.6047L14.6768 13.5848L16.975 13.179C16.992 13.1756 17.0046 13.1614 17.0051 13.1438V12.339C17.0051 12.3367 17.0051 12.3344 17.0046 12.3321C17.0011 12.319 16.988 12.3111 16.975 12.3139L15.4685 12.5797V11.9525L16.8327 11.7118C16.8498 11.7084 16.8623 11.6936 16.8629 11.6765V10.8666C16.8629 10.8644 16.8629 10.8621 16.8623 10.8598C16.8589 10.8467 16.8458 10.8387 16.8327 10.8416L15.4685 11.0823V10.5679L16.975 10.3021C16.992 10.2986 17.0046 10.2839 17.0051 10.2668V9.46148ZM14.0349 9.96627C14.0286 9.96058 14.0195 9.9583 14.011 9.96001L13.179 10.1069C13.1693 10.1086 13.1613 10.1137 13.1556 10.1216C13.1505 10.129 13.1482 10.1387 13.1499 10.1478L13.2034 10.384L12.8277 11.8729C12.8266 11.878 12.8193 11.8786 12.8193 11.874L12.5113 10.2469V10.2446C12.5079 10.2321 12.4954 10.2241 12.4823 10.2275L12.4374 10.2355L11.6076 10.3818C11.5984 10.3835 11.5899 10.3892 11.5848 10.3977C11.5791 10.4051 11.5768 10.4142 11.5791 10.4233L11.6326 10.6617L11.257 12.1494C11.2558 12.154 11.249 12.1551 11.2479 12.1506L10.9417 10.524L10.9411 10.5223C10.9383 10.5092 10.9252 10.5012 10.9127 10.5041L10.0374 10.6589C10.0277 10.6606 10.0191 10.6663 10.014 10.6743C10.0083 10.6817 10.0066 10.6913 10.0083 10.7004L10.7505 14.0014L10.6987 14.2513C10.6964 14.2597 10.6987 14.2683 10.7044 14.2751C10.7106 14.2808 10.7192 14.2836 10.7271 14.2819L11.5603 14.1374C11.5774 14.1334 11.5899 14.1192 11.5927 14.1027L11.9923 12.4636C11.994 12.4562 12.0048 12.4539 12.0065 12.4613L12.3218 13.7259L12.2701 13.9758C12.2678 13.9843 12.2701 13.9934 12.2758 13.9997C12.2815 14.0059 12.2899 14.0082 12.2985 14.0065L13.1334 13.8591C13.1562 13.8551 13.1636 13.8272 13.1636 13.8244L14.0406 9.99075C14.0429 9.98221 14.0406 9.9731 14.0349 9.96627ZM9.67368 12.5951C9.67368 11.6259 9.49839 10.6663 8.19052 10.8968C7.59471 11.0021 7.19232 11.273 6.96009 11.7249C6.7364 12.1603 6.70793 12.6981 6.70793 13.1181C6.70793 14.0867 6.88322 15.0463 8.19109 14.8158C8.78699 14.7111 9.18938 14.4401 9.42152 13.9883C9.64521 13.5523 9.67368 13.0145 9.67368 12.5951ZM6.2857 12.5581C6.2857 12.3902 6.2578 12.0727 6.06771 11.837C5.84403 11.5592 5.461 11.466 4.93058 11.5592L3.62905 11.7892C3.61994 11.7909 3.6114 11.7966 3.60628 11.8046C3.60058 11.812 3.59888 11.8217 3.60058 11.8308L3.65345 12.0658V15.2472L3.60058 15.5011C3.59831 15.5096 3.60058 15.5186 3.60628 15.5249C3.61254 15.5312 3.62108 15.5334 3.62905 15.5317L4.52257 15.3747C4.53966 15.3707 4.55153 15.3565 4.55275 15.3388V14.1072L4.93058 14.0407C5.461 13.9473 5.84403 13.7179 6.06771 13.36C6.2578 13.0555 6.2857 12.726 6.2857 12.5581ZM21.8911 6.95449V13.673C21.8911 13.7908 21.8341 13.9018 21.738 13.9695L21.7272 13.9769L12.0003 20.8707V23.7403C12.0003 23.7943 11.9832 23.8466 11.9519 23.8905C11.8694 24.0077 11.7072 24.035 11.5905 23.952L2.27279 17.349L2.2614 17.341C2.16582 17.2733 2.10889 17.1628 2.10889 17.0456V10.326C2.10889 10.2082 2.16582 10.0978 2.26197 10.0295L2.27279 10.0221L12.0003 3.12939V0.259874C12.0003 0.205865 12.0168 0.153482 12.0481 0.109639C12.1306 -0.00757196 12.2928 -0.0349023 12.4095 0.0475767L21.7272 6.65118L21.7385 6.65915C21.8341 6.72682 21.8911 6.83728 21.8911 6.95449ZM8.76479 12.755C8.76479 13.5114 8.68223 13.8631 8.1911 13.9502C7.69996 14.0373 7.61683 13.7139 7.61683 12.9576C7.61683 12.2007 7.69996 11.8484 8.1911 11.7619C8.68223 11.6754 8.76479 11.9981 8.76479 12.755ZM8.76479 12.755C8.76479 13.5114 8.68223 13.8631 8.1911 13.9502C7.69996 14.0373 7.61683 13.7139 7.61683 12.9576C7.61683 12.2007 7.69996 11.8484 8.1911 11.7619C8.68223 11.6754 8.76479 11.9981 8.76479 12.755ZM8.76479 12.755C8.76479 13.5114 8.68223 13.8631 8.1911 13.9502C7.69996 14.0373 7.61683 13.7139 7.61683 12.9576C7.61683 12.2007 7.69996 11.8484 8.1911 11.7619C8.68223 11.6754 8.76479 11.9981 8.76479 12.755ZM8.76479 12.755C8.76479 13.5114 8.68223 13.8631 8.1911 13.9502C7.69996 14.0373 7.61683 13.7139 7.61683 12.9576C7.61683 12.2007 7.69996 11.8484 8.1911 11.7619C8.68223 11.6754 8.76479 11.9981 8.76479 12.755ZM5.35232 12.7237C5.35232 12.9747 5.21575 13.1204 4.93513 13.1699L4.55275 13.237V12.4915L4.93513 12.4244C5.35232 12.3509 5.35232 12.6315 5.35232 12.7237Z" fill="#242B42"/>
</svg>
