<svg width="24" height="24" viewBox="0 0 24 24" fill="none" xmlns="http://www.w3.org/2000/svg">
<path fill-rule="evenodd" clip-rule="evenodd" d="M20.0527 18.8343C20.2274 18.8343 20.4001 18.8702 20.5603 18.9398C21.1591 19.2001 21.4567 19.8654 21.2717 20.4754L21.2204 20.615L20.3903 22.5247C20.2106 22.938 19.8283 23.2215 19.3895 23.2794L19.2226 23.2904H17.9886C17.814 23.2904 17.6412 23.2545 17.4811 23.1848C16.8823 22.9246 16.5847 22.2593 16.7696 21.6492L16.821 21.5097L17.6511 19.5999C17.8307 19.1866 18.2131 18.9031 18.6518 18.8452L18.8187 18.8343H20.0527Z" fill="#242B42"/>
<path fill-rule="evenodd" clip-rule="evenodd" d="M15.151 18.8343C15.3257 18.8343 15.4984 18.8702 15.6586 18.9398C16.2574 19.2001 16.555 19.8654 16.37 20.4754L16.3187 20.615L15.4886 22.5247C15.3089 22.938 14.9266 23.2215 14.4878 23.2794L14.3209 23.2904H13.0869C12.9123 23.2904 12.7395 23.2545 12.5794 23.1848C11.9806 22.9246 11.683 22.2593 11.8679 21.6492L11.9193 21.5097L12.7494 19.5999C12.929 19.1866 13.3114 18.9031 13.7501 18.8452L13.917 18.8343H15.151Z" fill="#242B42"/>
<path fill-rule="evenodd" clip-rule="evenodd" d="M10.2493 18.8343C10.424 18.8343 10.5967 18.8702 10.7569 18.9398C11.3557 19.2001 11.6533 19.8654 11.4683 20.4754L11.417 20.615L10.5868 22.5247C10.4072 22.938 10.0249 23.2215 9.58611 23.2794L9.41921 23.2904H8.18522C8.01059 23.2904 7.83783 23.2545 7.67767 23.1848C7.07887 22.9246 6.78127 22.2593 6.96624 21.6492L7.01758 21.5097L7.84771 19.5999C8.02733 19.1866 8.40967 18.9031 8.84844 18.8452L9.01534 18.8343H10.2493Z" fill="#242B42"/>
<path fill-rule="evenodd" clip-rule="evenodd" d="M5.34764 18.8343C5.52227 18.8343 5.69503 18.8702 5.85518 18.9398C6.45399 19.2001 6.75158 19.8654 6.56661 20.4754L6.51527 20.615L5.68515 22.5247C5.50552 22.938 5.12319 23.2215 4.68441 23.2794L4.51751 23.2904H3.28351C3.10889 23.2904 2.93612 23.2545 2.77597 23.1848C2.17717 22.9246 1.87957 22.2593 2.06454 21.6492L2.11588 21.5097L2.946 19.5999C3.12563 19.1866 3.50796 18.9031 3.94674 18.8452L4.11364 18.8343H5.34764Z" fill="#242B42"/>
<path fill-rule="evenodd" clip-rule="evenodd" d="M22.7265 13.4869C22.9011 13.4869 23.0739 13.5228 23.234 13.5925C23.8329 13.8527 24.1304 14.518 23.9455 15.128L23.8941 15.2676L23.064 17.1774C22.8844 17.5906 22.5021 17.8742 22.0633 17.9321L21.8964 17.943H20.6624C20.4878 17.943 20.315 17.9071 20.1548 17.8375C19.556 17.5772 19.2584 16.9119 19.4434 16.3019L19.4947 16.1623L20.3249 14.2525C20.5045 13.8393 20.8868 13.5558 21.3256 13.4979L21.4925 13.4869H22.7265Z" fill="#242B42"/>
<path fill-rule="evenodd" clip-rule="evenodd" d="M17.8247 13.4869C17.9993 13.4869 18.1721 13.5228 18.3322 13.5925C18.931 13.8527 19.2286 14.518 19.0437 15.128L18.9923 15.2676L18.1622 17.1774C17.9826 17.5906 17.6002 17.8742 17.1615 17.9321L16.9946 17.943H15.7606C15.5859 17.943 15.4132 17.9071 15.253 17.8375C14.6542 17.5772 14.3566 16.9119 14.5416 16.3019L14.5929 16.1623L15.4231 14.2525C15.6027 13.8393 15.985 13.5558 16.4238 13.4979L16.5907 13.4869H17.8247Z" fill="#242B42"/>
<path fill-rule="evenodd" clip-rule="evenodd" d="M12.923 13.4869C13.0976 13.4869 13.2704 13.5228 13.4305 13.5925C14.0293 13.8527 14.3269 14.518 14.142 15.128L14.0906 15.2676L13.2605 17.1774C13.0809 17.5906 12.6985 17.8742 12.2598 17.9321L12.0929 17.943H10.8589C10.6842 17.943 10.5115 17.9071 10.3513 17.8375C9.75251 17.5772 9.45492 16.9119 9.63989 16.3019L9.69122 16.1623L10.5213 14.2525C10.701 13.8393 11.0833 13.5558 11.5221 13.4979L11.689 13.4869H12.923Z" fill="#242B42"/>
<path fill-rule="evenodd" clip-rule="evenodd" d="M8.02128 13.4869C8.19591 13.4869 8.36867 13.5228 8.52882 13.5925C9.12763 13.8527 9.42522 14.518 9.24025 15.128L9.18892 15.2676L8.35879 17.1774C8.17916 17.5906 7.79683 17.8742 7.35806 17.9321L7.19116 17.943H5.95716C5.78253 17.943 5.60977 17.9071 5.44962 17.8375C4.85081 17.5772 4.55322 16.9119 4.73819 16.3019L4.78952 16.1623L5.61965 14.2525C5.79928 13.8393 6.18161 13.5558 6.62038 13.4979L6.78729 13.4869H8.02128Z" fill="#242B42"/>
<path fill-rule="evenodd" clip-rule="evenodd" d="M8.36896 0.709656C8.53667 1.22579 8.62612 1.77576 8.62612 2.34663C8.62612 2.67376 8.59675 2.99403 8.54049 3.30494L11.5611 4.08349C12.0377 4.20633 12.3245 4.6923 12.2017 5.16893C12.085 5.62173 11.6406 5.90322 11.1878 5.82491L11.1162 5.80953L7.92918 4.98817C7.64865 5.48098 7.29205 5.92484 6.87536 6.30379L8.43391 8.49555C8.7191 8.89672 8.62508 9.45312 8.22391 9.73831C7.84097 10.0105 7.3166 9.93724 7.02168 9.5811L6.98115 9.52831L5.37407 7.26786C4.92653 7.45865 4.44766 7.59018 3.94733 7.65258L3.9472 11.0361C3.9472 11.5283 3.54819 11.9273 3.05598 11.9273C2.58615 11.9273 2.20123 11.5637 2.1672 11.1026L2.16483 7.57777C1.36191 7.40763 0.625526 7.05731 0 6.57111C0.350553 6.08822 0.727037 5.62683 1.12824 5.18845C1.72566 5.64274 2.47084 5.91152 3.27879 5.91152C5.24762 5.91152 6.84368 4.31547 6.84368 2.34663C6.84368 1.98015 6.78838 1.62659 6.68567 1.29383C7.23216 1.06837 7.79379 0.872922 8.36896 0.709656Z" fill="#242B42"/>
</svg>
