<svg width="24" height="24" viewBox="0 0 24 24" fill="none" xmlns="http://www.w3.org/2000/svg">
<path d="M0 15.3834H5.5211V12.727H3.61673C3.44222 12.727 3.28826 12.597 3.23763 12.4068C3.187 12.2166 3.25163 12.0111 3.39676 11.9007L7.1466 9.04949C7.21171 8.99999 7.28826 8.97353 7.36656 8.97353H11.0249L10.5003 8.52669C10.3637 8.41035 10.3078 8.20744 10.3617 8.0231C10.4155 7.8387 10.5669 7.71429 10.7375 7.71429H17.5941C17.6964 7.71429 17.7948 7.75944 17.8685 7.84015L21.6244 11.9506C21.7409 12.0782 21.7777 12.2737 21.7174 12.4444C21.657 12.6152 21.5115 12.727 21.3499 12.727H19.5295V15.3834H24V16.2857H19.1333C18.9145 16.2857 18.7372 16.0837 18.7372 15.8346V12.2759C18.7372 12.0268 18.9145 11.8248 19.1333 11.8248H20.366L17.4346 8.61657H11.9286L12.4533 9.06341C12.5899 9.17975 12.6458 9.38266 12.5919 9.56706C12.5381 9.7514 12.3866 9.87581 12.216 9.87581H7.48665L4.92342 11.8248H5.91724C6.13602 11.8248 6.31337 12.0268 6.31337 12.2759V15.8346C6.31337 16.0837 6.13602 16.2857 5.91724 16.2857H0V15.3834Z" fill="#242B42"/>
</svg>
