<svg width="24" height="24" viewBox="0 0 24 24" fill="none" xmlns="http://www.w3.org/2000/svg">
<path fill-rule="evenodd" clip-rule="evenodd" d="M20.7978 2.7403C20.7672 2.32635 20.4217 2 20 2H3.99995L3.94025 2.00219C3.5263 2.03273 3.19995 2.37826 3.19995 2.8V21.2L3.20215 21.2597C3.23269 21.6736 3.57821 22 3.99995 22H20L20.0597 21.9978C20.4736 21.9673 20.8 21.6217 20.8 21.2V2.8L20.7978 2.7403ZM4.79997 3.60002H19.2V20.4H4.79997V3.60002Z" fill="#242B42"/>
<path fill-rule="evenodd" clip-rule="evenodd" d="M18.3977 5.14027C18.3672 4.72633 18.0217 4.39998 17.5999 4.39998H6.39993L6.34023 4.40217C5.92628 4.43271 5.59993 4.77823 5.59993 5.19998V18.8L5.60212 18.8597C5.63266 19.2736 5.97819 19.6 6.39993 19.6H17.5999L17.6596 19.5978C18.0736 19.5672 18.3999 19.2217 18.3999 18.8V5.19998L18.3977 5.14027ZM7.19995 6H16.7999V11H15.8L15.7978 10.9403C15.7672 10.5264 15.4217 10.2 15 10.2C14.5581 10.2 14.2 10.5582 14.2 11H9.79995L9.79776 10.9403C9.76722 10.5264 9.4217 10.2 8.99995 10.2C8.55812 10.2 8.19995 10.5582 8.19995 11H7.19995V6ZM7.19995 12.6H16.7999V18H7.19995V12.6Z" fill="#242B42"/>
</svg>
