<svg width="24" height="24" viewBox="0 0 24 24" fill="none" xmlns="http://www.w3.org/2000/svg">
<path fill-rule="evenodd" clip-rule="evenodd" d="M13.6009 7.72763L13.5462 7.69608C13.4135 7.62662 13.2683 7.5996 13.1274 7.61126C12.9863 7.59955 12.8409 7.62656 12.7081 7.69608L12.6534 7.72763L3.49126 13.5173C3.17399 13.7556 3.0879 14.2017 3.30353 14.5431C3.51916 14.8845 3.95894 14.9985 4.3105 14.8144L4.36524 14.7828L5.10861 14.3133L5.11088 22.2897L5.11748 22.3484L5.13589 22.4354L5.16193 22.5137L5.18246 22.5611L5.22575 22.6401L5.28568 22.7229L5.3349 22.7769L5.40648 22.8399L5.46076 22.8785L5.50006 22.9023L5.54921 22.9278L5.61042 22.9536L5.67775 22.9751L5.75168 22.9912L5.82941 23L20.559 22.9994L20.6153 22.9932L20.6794 22.9809L20.764 22.9556L20.8105 22.937L20.8587 22.9138L20.9529 22.8553L21.0062 22.813L21.0565 22.7651L21.1007 22.715L21.1581 22.6337L21.1816 22.5925L21.2139 22.5238L21.2515 22.4057L21.2679 22.3036L21.2712 22.2319L21.2711 14.3926L21.8891 14.7828L21.9438 14.8144C22.2954 14.9985 22.7352 14.8845 22.9508 14.5431C23.1778 14.1837 23.0704 13.7084 22.7111 13.4814L13.6009 7.72763ZM6.64782 13.3409L13.127 9.24874L19.7317 13.4206V21.4622H6.64782V13.3409Z" fill="#242B42"/>
<path d="M10.3857 12.6567C11.5493 14.2567 11.5731 15.718 10.3754 16.8253L10.299 16.894C9.52386 17.5723 9.52386 18.3128 10.3696 19.37C10.5688 19.6189 10.5284 19.9822 10.2795 20.1813C10.0305 20.3805 9.66729 20.3401 9.46814 20.0912C8.28615 18.6137 8.26203 17.2016 9.46217 16.094L9.53877 16.0252C10.3166 15.3446 10.3166 14.5245 9.45205 13.3358C9.26455 13.0779 9.32155 12.7169 9.57937 12.5294C9.83719 12.3419 10.1982 12.3989 10.3857 12.6567Z" fill="#242B42"/>
<path d="M13.4643 12.6567C14.6279 14.2567 14.6517 15.718 13.454 16.8253L13.3776 16.894C12.6025 17.5723 12.6025 18.3128 13.4482 19.37C13.6474 19.6189 13.607 19.9822 13.3581 20.1813C13.1091 20.3805 12.7459 20.3401 12.5467 20.0912C11.3648 18.6137 11.3406 17.2016 12.5408 16.094L12.6174 16.0252C13.3952 15.3446 13.3952 14.5245 12.5307 13.3358C12.3432 13.0779 12.4002 12.7169 12.658 12.5294C12.9158 12.3419 13.2768 12.3989 13.4643 12.6567Z" fill="#242B42"/>
<path d="M16.5429 12.6567C17.7065 14.2567 17.7303 15.718 16.5326 16.8253L16.4562 16.894C15.6811 17.5723 15.6811 18.3128 16.5268 19.37C16.726 19.6189 16.6856 19.9822 16.4367 20.1813C16.1877 20.3805 15.8245 20.3401 15.6253 20.0912C14.4434 18.6137 14.4192 17.2016 15.6194 16.094L15.696 16.0252C16.4738 15.3446 16.4738 14.5245 15.6093 13.3358C15.4218 13.0779 15.4788 12.7169 15.7366 12.5294C15.9944 12.3419 16.3554 12.3989 16.5429 12.6567Z" fill="#242B42"/>
<path d="M8.15755 1C8.30238 1.44572 8.37964 1.92067 8.37964 2.41366C8.37964 2.69616 8.35427 2.97274 8.30569 3.24124L10.9142 3.91357C11.3258 4.01965 11.5735 4.43933 11.4674 4.85094C11.3666 5.24197 10.9828 5.48505 10.5918 5.41742L10.53 5.40414L7.77777 4.69483C7.53551 5.12041 7.22756 5.50372 6.86771 5.83098L8.21364 7.72373C8.45993 8.07017 8.37873 8.55067 8.03229 8.79695C7.7016 9.03204 7.24876 8.96875 6.99407 8.66119L6.95907 8.6156L5.57123 6.66353C5.18474 6.82829 4.7712 6.94187 4.33913 6.99576L4.33902 9.91766C4.33902 10.3427 3.99444 10.6873 3.56938 10.6873C3.16364 10.6873 2.83123 10.3733 2.80185 9.9751L2.7998 6.93116C2.10641 6.78423 1.47049 6.4817 0.930298 6.06183C1.23303 5.64481 1.55815 5.24637 1.90462 4.86779C2.42054 5.26011 3.06406 5.49222 3.76179 5.49222C5.46203 5.49222 6.84035 4.1139 6.84035 2.41366C6.84035 2.09717 6.7926 1.79184 6.7039 1.50448C7.17584 1.30977 7.66085 1.14099 8.15755 1Z" fill="#242B42"/>
</svg>
