<svg width="24" height="24" viewBox="0 0 24 24" fill="none" xmlns="http://www.w3.org/2000/svg">
<path fill-rule="evenodd" clip-rule="evenodd" d="M2.70074 4.63007H7.88395C8.82325 4.63007 9.5847 5.39151 9.5847 6.33081C9.5847 7.2701 8.82325 8.03155 7.88395 8.03155H2.70074C1.76145 8.03155 1 7.2701 1 6.33081C1 5.39151 1.76145 4.63007 2.70074 4.63007ZM2.70074 10.2992H11.9333C12.8726 10.2992 13.6341 11.0606 13.6341 11.9999C13.6341 12.9392 12.8726 13.7007 11.9333 13.7007H2.70074C1.76145 13.7007 1 12.9392 1 11.9999C1 11.0606 1.76145 10.2992 2.70074 10.2992ZM16.4687 19.3698H16.3884L16.3428 19.3699V19.3698H2.70074C1.76145 19.3698 1 18.6084 1 17.6691C1 16.7298 1.76145 15.9683 2.70074 15.9683H16.3859C17.9263 15.9598 19.2016 15.4939 20.2118 14.5708L20.2397 14.5466C20.4381 14.3835 20.7111 14.3413 20.9507 14.4394C21.3092 14.5861 21.4809 14.9957 21.3342 15.3542L21.2559 15.5442C20.868 16.4773 20.5379 17.1582 20.2655 17.5868L20.2118 17.6692C19.4839 18.7557 18.2692 19.3216 16.5678 19.367C16.535 19.3688 16.5019 19.3698 16.4687 19.3698ZM22.9096 13.7842L22.9996 11.6658C23.0041 11.5608 22.9744 11.4571 22.9149 11.3704C22.7632 11.1491 22.4607 11.0926 22.2394 11.2444L20.4565 12.4667C20.3658 12.5289 20.2989 12.6201 20.2667 12.7252C20.1881 12.9818 20.3324 13.2535 20.589 13.3321C21.0178 13.4635 21.314 13.5698 21.4777 13.6513L21.5208 13.6739C21.6355 13.7375 21.7976 13.8607 22.0072 14.0435L22.0999 14.1255C22.1837 14.2006 22.291 14.2442 22.4034 14.249C22.6716 14.2604 22.8982 14.0523 22.9096 13.7842Z" fill="#242B42"/>
<path opacity="0.33" fill-rule="evenodd" clip-rule="evenodd" d="M16.4687 4.63007H2.70074C1.76145 4.63007 1 5.39151 1 6.33081C1 7.2701 1.76145 8.03155 2.70074 8.03155H16.4687C17.4079 8.03155 18.1694 7.2701 18.1694 6.33081C18.1694 5.39151 17.4079 4.63007 16.4687 4.63007ZM16.4687 10.2992H2.70074C1.76145 10.2992 1 11.0606 1 11.9999C1 12.9392 1.76145 13.7007 2.70074 13.7007H16.4687C17.4079 13.7007 18.1694 12.9392 18.1694 11.9999C18.1694 11.0606 17.4079 10.2992 16.4687 10.2992Z" fill="#242B42"/>
</svg>
