<svg width="26" height="24" viewBox="0 0 26 24" fill="none" xmlns="http://www.w3.org/2000/svg">
<path fill-rule="evenodd" clip-rule="evenodd" d="M6.23478 8.55156C6.67759 8.55447 7.05359 8.71456 7.35845 9.02743C7.66769 9.34033 7.81867 9.71786 7.8158 10.1557L7.792 13.7853C7.7891 14.2275 7.6288 14.603 7.31551 14.9074C7.00219 15.2162 6.62415 15.367 6.18573 15.3641C5.74293 15.3612 5.36692 15.2011 5.06206 14.8883C4.75721 14.5754 4.60623 14.1979 4.6091 13.76L4.63287 10.1348C4.63577 9.69262 4.79607 9.31712 5.10936 9.01268C5.42706 8.70389 5.80075 8.54872 6.23478 8.55156ZM6.77247 10.127C6.7735 9.96935 6.7174 9.83325 6.60854 9.71869C6.49965 9.60852 6.36411 9.55071 6.2019 9.54965C6.04407 9.54861 5.90778 9.60464 5.79308 9.71335C5.67837 9.82206 5.62049 9.95741 5.61942 10.1194L5.59557 13.7578C5.59453 13.9154 5.65064 14.0515 5.76388 14.1661C5.87715 14.2763 6.01269 14.3341 6.17052 14.3351C6.32835 14.3361 6.46463 14.2801 6.57934 14.1714C6.68966 14.0627 6.74755 13.9273 6.74861 13.7653L6.77247 10.127ZM2.56439 15.3449C2.12158 15.342 1.74555 15.1863 1.44069 14.8734C1.13145 14.5605 0.980446 14.1873 0.983317 13.7495L1.00712 10.1199C1.01002 9.6777 1.17032 9.3022 1.4836 8.99777C1.79692 8.68895 2.17496 8.53818 2.61338 8.54106C3.05619 8.54396 3.4322 8.70405 3.73705 9.01692C4.04191 9.32979 4.19288 9.70733 4.19001 10.1452L4.18912 10.2809L3.13725 10.8914L3.14236 10.112C3.1434 9.9544 3.08729 9.8183 2.97405 9.70372C2.86081 9.58913 2.72527 9.53132 2.56744 9.53029C2.40961 9.52925 2.27332 9.58528 2.15859 9.69837C2.04385 9.81146 1.99035 9.94684 1.98932 10.1045L1.96546 13.7428C1.96443 13.9004 2.02053 14.0365 2.12939 14.1511C2.23825 14.2656 2.37382 14.3191 2.53603 14.3201C2.69825 14.3212 2.83015 14.2651 2.94485 14.1564C3.05956 14.0477 3.11744 13.9124 3.11851 13.7504L3.12083 13.3957L4.16356 12.8421L4.15747 13.7703C4.15457 14.2125 3.99427 14.588 3.68099 14.8925C3.37208 15.1969 2.99842 15.3477 2.56439 15.3449ZM14.0471 15.3369L12.694 11.0678L12.6661 15.3278L14.0471 15.3369ZM11.355 8.6683L10.3554 8.66175C10.6752 8.69887 10.7049 8.85231 10.7047 8.88734L10.6768 13.1343L9.37775 8.65534L7.89151 8.64559C8.26385 8.69619 8.24516 8.87121 8.24946 8.88437L8.20737 15.3029L9.21136 15.3095L9.23932 11.0451L10.5924 15.3142L11.6709 15.3213L11.7131 8.88957C11.709 8.84138 11.6795 8.67043 11.355 8.6683Z" fill="#242B42"/>
<path fill-rule="evenodd" clip-rule="evenodd" d="M11.5271 15.1234C11.5271 15.1234 11.5252 15.4035 11.8054 15.4054L11.5252 15.4035L11.5271 15.1234Z" fill="#242B42"/>
<path fill-rule="evenodd" clip-rule="evenodd" d="M19.9663 15.459C19.5278 15.4561 19.1554 15.3001 18.8535 14.9867C18.5473 14.6732 18.3978 14.2993 18.4006 13.8606L18.4245 10.224C18.4274 9.78097 18.5862 9.40473 18.8964 9.09968C19.2068 8.79025 19.5812 8.63916 20.0154 8.642C20.4539 8.64488 20.8262 8.80525 21.1281 9.1187C21.43 9.43215 21.5795 9.81041 21.5766 10.2491L21.5757 10.3851L20.5426 11.0012L20.5478 10.216C20.5488 10.0581 20.4933 9.92173 20.3811 9.80694C20.269 9.69214 20.1348 9.63423 19.9785 9.63321C19.8222 9.63218 19.6872 9.68833 19.5735 9.80164C19.4643 9.91499 19.4069 10.0506 19.4059 10.2085L19.382 13.8539C19.3809 14.0118 19.4365 14.1482 19.5443 14.263C19.6521 14.3733 19.7863 14.4312 19.947 14.4323C20.1076 14.4333 20.2383 14.3772 20.3519 14.2682C20.4655 14.1593 20.5228 14.0237 20.5239 13.8614L20.5262 13.5061L21.5589 12.9513L21.5528 13.8813C21.5499 14.3244 21.3911 14.7006 21.0808 15.0056C20.7662 15.3107 20.3962 15.4618 19.9663 15.459ZM13.8407 8.67175L12.8768 8.66543C13.3055 10.1598 13.7386 11.6586 14.1673 13.1529L14.1952 8.9022C14.1912 8.8583 14.1576 8.67383 13.8407 8.67175ZM21.9122 8.72896L21.9056 9.73791L22.965 9.74485L22.9279 15.395L23.9222 15.4015L23.9578 9.97948C23.9407 9.93989 23.8463 9.7594 23.6076 9.74907L25.01 9.75826L25.0166 8.74931L21.9122 8.72896ZM18.1 8.69963L14.9218 8.67879C15.1432 8.68901 15.242 8.84759 15.2677 8.9004L15.2283 14.9146C15.2323 14.9629 15.2775 15.3492 15.8854 15.3532L18.0563 15.3675L18.0629 14.3585L16.2263 14.3465L16.2374 12.662C16.2288 12.6444 16.1774 12.5344 16.0342 12.5246L16.9807 12.5308L17.4476 11.5249L16.2449 11.517L16.2553 9.92903C16.251 9.92023 16.1656 9.70471 15.9008 9.68981L18.0934 9.70419L18.1 8.69963Z" fill="#242B42"/>
</svg>
