<svg width="24" height="24" viewBox="0 0 24 24" fill="none" xmlns="http://www.w3.org/2000/svg">
<path fill-rule="evenodd" clip-rule="evenodd" d="M23.5132 13.4904C23.1908 13.8145 22.7257 13.9765 22.1178 13.9765H21.0362C20.4284 13.9765 19.9633 13.8145 19.6409 13.4904C19.3185 13.1664 19.1573 12.6725 19.1573 12.0088C19.1573 11.3412 19.3185 10.8434 19.6409 10.5155C19.9633 10.1875 20.4284 10.0236 21.0362 10.0236H22.1178C22.7257 10.0236 23.1908 10.1875 23.5132 10.5155C23.8356 10.8434 23.9968 11.3412 23.9968 12.0088C23.9968 12.6725 23.8356 13.1664 23.5132 13.4904ZM21.0607 13.3003H21.6327H22.149C22.551 13.3003 22.8443 13.2007 23.0287 13.0014C23.2132 12.802 23.3054 12.4779 23.3054 12.0289C23.3054 11.58 23.2142 11.2549 23.0318 11.0536C22.8495 10.8524 22.5552 10.7517 22.149 10.7517H21.0607C20.6545 10.7517 20.3591 10.8524 20.1747 11.0536C19.9902 11.2549 19.898 11.5819 19.898 12.0347C19.898 12.4837 19.9892 12.8069 20.1716 13.0043C20.354 13.2016 20.6503 13.3003 21.0607 13.3003ZM15.6738 12.5V13.9765H14.9746V12.3706C14.9746 12.1568 14.9686 11.7687 14.9686 11.7687H15.6027H17.5365C17.6353 11.7687 17.7202 11.7537 17.7913 11.7237C17.8625 11.6937 17.9197 11.6543 17.9632 11.6056C18.0066 11.5568 18.0392 11.5015 18.061 11.4396C18.0827 11.3778 18.0936 11.3131 18.0936 11.2456C18.0936 11.1068 18.0491 10.9878 17.9602 10.8884C17.8713 10.789 17.7321 10.7393 17.5425 10.7393H14.9686V10.0756H17.5128C17.738 10.0756 17.9316 10.1065 18.0936 10.1684C18.2555 10.2303 18.3889 10.3128 18.4936 10.4159C18.5983 10.519 18.6753 10.64 18.7247 10.7787C18.7741 10.9175 18.7987 11.0618 18.7987 11.2118C18.7987 11.3543 18.776 11.4968 18.7306 11.6393C18.6852 11.7818 18.6111 11.9093 18.5084 12.0218C18.4057 12.1343 18.2723 12.2262 18.1084 12.2975C17.9444 12.3687 17.7459 12.4043 17.5128 12.4043H15.6738V12.5ZM8.75628 13.2946V13.9765H5.89011C5.65307 13.9765 5.4506 13.9495 5.2827 13.8956C5.1148 13.8417 4.97653 13.7675 4.86788 13.6731C4.75924 13.5787 4.68023 13.466 4.63085 13.335C4.58146 13.204 4.55677 13.0634 4.55677 12.9131V11.7111H5.30344H8.72072V12.3294H5.2827C5.2827 12.3294 5.28566 12.4874 5.28566 12.8033C5.28566 12.9574 5.33504 13.0778 5.43381 13.1645C5.53258 13.2512 5.68467 13.2946 5.89011 13.2946H8.75628ZM0 10.0753H8.75628V10.7424H2.59045V13.9765H1.88941V10.7424H0V10.0753ZM13.7351 10.0753C13.4752 10.0753 13.3625 10.2292 13.2595 10.3775L11.8672 12.3679L10.763 10.3775C10.6636 10.2343 10.555 10.0857 10.3134 10.0758C10.3099 10.0754 10.3063 10.0753 10.3026 10.0753H10.2875H9.7693H9.62115V13.9765H10.3075V11.0186L11.5784 13.2462H12.1561L13.7302 10.9365V13.9765H14.4165V10.0753H13.7351Z" fill="#242B42"/>
</svg>
