<svg width="24" height="24" viewBox="0 0 24 24" fill="none" xmlns="http://www.w3.org/2000/svg">
<path fill-rule="evenodd" clip-rule="evenodd" d="M11.0448 1.00665L10.9462 1C10.9021 1.00047 10.8577 1.00548 10.8133 1.01539L10.7562 1.03079L10.7139 1.04588L6.8468 2.57394L6.78017 2.6081L6.74153 2.63229C6.70768 2.65518 6.67608 2.68094 6.64692 2.70915C6.61313 2.74177 6.582 2.77823 6.55415 2.81824L6.53155 2.8528C6.51045 2.88697 6.49165 2.92346 6.47546 2.96214L4.71337 7.93475L4.69121 8.00786C4.67941 8.05472 4.67196 8.10209 4.66865 8.14937C4.65718 8.31189 4.69475 8.47225 4.77196 8.60755C4.81046 8.67499 4.85895 8.73631 4.91649 8.78866C4.96074 8.82894 5.0102 8.86373 5.06682 8.89267L6.09175 9.41801L4.70437 13.2718L4.68018 13.369C4.66865 13.4315 4.66461 13.4943 4.66759 13.5562L4.67088 13.6005L4.68183 13.6741L4.69432 13.7283L4.71261 13.7876L4.7316 13.8365L4.76137 13.8987L4.79103 13.9495L4.84698 14.0263L4.89293 14.0765L4.9278 14.109L4.97095 14.1437L5.01486 14.1737L5.06727 14.2035L6.07604 14.7204L4.72329 18.1496L4.70541 18.1996L4.68947 18.2564L4.67581 18.3259L4.66908 18.3849L4.66663 18.441L4.66951 18.5165L4.67655 18.5751L4.6962 18.6662L4.71664 18.7298L4.75603 18.8195L4.79453 18.8859C4.82463 18.9324 4.85971 18.9754 4.89937 19.0139C4.92044 19.0344 4.9428 19.0536 4.96636 19.0713L4.9847 19.0847L5.03863 19.119L5.07623 19.1391L12.7823 22.9432L12.8521 22.9698L12.9064 22.9846L12.9677 22.9953L13.027 23H13.0742L13.1433 22.9931L13.1754 22.9875L13.2413 22.9704L13.2931 22.9518L18.8804 20.676L18.9298 20.6537L18.9763 20.6278L19.0237 20.5963L19.0641 20.5647L19.1129 20.5193L19.1477 20.4813L19.1897 20.4269C19.2314 20.3679 19.2653 20.302 19.2897 20.2311L19.3119 20.154L19.3289 20.0545L19.3333 19.9942L19.3326 5.50927L19.324 5.426L19.3109 5.3593L19.2812 5.2635L19.2535 5.19904L19.2236 5.14309L19.1856 5.08482L19.1506 5.0397L19.1078 4.99306L19.0364 4.93088L18.9955 4.90191L18.9524 4.87607L11.2416 1.0682L11.1546 1.03253L11.0883 1.0145L11.0448 1.00665ZM6.27617 18.0648L7.34021 15.3679L13.6815 18.617L12.6803 21.2267L6.27617 18.0648ZM17.9366 17.2557L15.3203 18.2889L14.3129 20.9157L17.9366 19.4398V17.2557ZM15.3203 13.3579L17.9365 12.3246V15.6409L14.1026 17.1555L13.9028 17.0531L15.3203 13.3579ZM7.35837 10.067L6.25347 13.1337L12.6384 16.4052L13.803 13.3689L7.35837 10.067ZM15.3203 8.04758L17.9365 7.01434V10.7099L14.5227 12.0599L13.9028 11.7424L15.3203 8.04758ZM7.49699 4.3L6.24997 7.8215L12.6384 11.0946L14.0111 7.51616L7.49699 4.3ZM8.95734 3.35399L10.923 2.57755L17.2158 5.68447L15.2497 6.46091L8.95734 3.35399Z" fill="#242B42"/>
</svg>
