<svg width="24" height="24" viewBox="0 0 24 24" fill="none" xmlns="http://www.w3.org/2000/svg">
<path d="M9.96748 12.2439C9.96748 12.6929 9.60349 13.0569 9.15447 13.0569C8.70546 13.0569 8.34146 12.6929 8.34146 12.2439C8.34146 11.7949 8.70546 11.4309 9.15447 11.4309C9.60349 11.4309 9.96748 11.7949 9.96748 12.2439Z" fill="#242B42"/>
<path d="M12.813 12.2439C12.813 12.6929 12.449 13.0569 12 13.0569C11.551 13.0569 11.187 12.6929 11.187 12.2439C11.187 11.7949 11.551 11.4309 12 11.4309C12.449 11.4309 12.813 11.7949 12.813 12.2439Z" fill="#242B42"/>
<path d="M15.6585 12.2439C15.6585 12.6929 15.2945 13.0569 14.8455 13.0569C14.3965 13.0569 14.0325 12.6929 14.0325 12.2439C14.0325 11.7949 14.3965 11.4309 14.8455 11.4309C15.2945 11.4309 15.6585 11.7949 15.6585 12.2439Z" fill="#242B42"/>
<path fill-rule="evenodd" clip-rule="evenodd" d="M12 22C17.5228 22 22 17.5228 22 12C22 6.47715 17.5228 2 12 2C6.47715 2 2 6.47715 2 12C2 14.0365 2.60874 15.9308 3.65418 17.5108L2.49723 20.3129C2.44352 20.443 2.43346 20.587 2.46854 20.7233C2.55808 21.0712 2.91267 21.2806 3.26054 21.191L6.50458 20.356C8.08156 21.3952 9.97015 22 12 22ZM12 6.87805L6.24333 10.9865L6.23714 10.991C6.18019 11.0316 6.14634 11.0973 6.14634 11.1677V15.1722C6.14634 15.2421 6.18 15.3077 6.23678 15.3482L6.24333 15.353L11.7576 19.2883C11.8593 19.361 12 19.2877 12 19.1621V17.4472L17.7567 13.3387C17.8198 13.2936 17.8537 13.2279 17.8537 13.1575V9.15505C17.8537 9.08309 17.82 9.01733 17.7632 8.97697L12.2424 5.03694C12.1407 4.96425 12 5.03749 12 5.16315V6.87805Z" fill="#242B42"/>
</svg>
