<svg width="24" height="24" viewBox="0 0 24 24" fill="none" xmlns="http://www.w3.org/2000/svg">
<path fill-rule="evenodd" clip-rule="evenodd" d="M8.2142 9.91699C8.23402 6.93861 9.41585 4.13916 11.5544 2.02839L12.0891 1.5L12.6244 2.02839C14.7652 4.14149 15.948 6.94467 15.965 9.92677C16.6989 10.4803 18.2654 12.0711 18.2994 15.6081C18.3022 15.8565 18.1588 16.0093 18.0139 16.0093C17.9247 16.0093 17.8355 15.952 17.7779 15.8229C17.3998 14.9595 16.7018 13.9205 15.4666 13.3045C15.4621 13.3194 15.4568 13.3341 15.4515 13.3487C15.4462 13.3634 15.4409 13.3781 15.4364 13.393C15.3878 13.5435 15.3359 13.6935 15.2816 13.8417C14.8011 14.8873 13.5551 15.6333 12.0891 15.6333C10.6222 15.6333 9.37526 14.885 8.89573 13.8389C8.84193 13.6917 8.79096 13.543 8.74281 13.3939C8.73738 13.3766 8.73124 13.3595 8.72509 13.3424C8.72002 13.3283 8.71494 13.3141 8.71025 13.2998C7.46895 13.9144 6.76806 14.9572 6.38906 15.8229C6.33243 15.952 6.24228 16.0093 6.15355 16.0093C6.00865 16.0093 5.86517 15.8565 5.86753 15.6081C5.90198 12.0534 7.48452 10.4622 8.2142 9.91699ZM12.0893 6.79134C11.2534 6.79134 10.5757 7.45998 10.5757 8.28518C10.5757 9.11085 11.2534 9.77996 12.0893 9.77996C12.9256 9.77996 13.6034 9.11085 13.6034 8.28518C13.6034 7.45998 12.9256 6.79134 12.0893 6.79134ZM8.83549 22.4999H3.34619L8.54817 14.459C8.81521 14.9445 9.21906 15.358 9.7168 15.6709L6.3567 20.8637H8.01552L10.6099 17.4144L11.9998 19.4947L13.3902 17.4144L15.9841 20.8637H17.6429L14.2861 15.6756C14.7853 15.3646 15.1891 14.9525 15.4576 14.4689L20.6539 22.4999H15.1646L13.4694 20.2465L11.9998 22.4435L10.5306 20.2465L8.83549 22.4999Z" fill="#242B42"/>
</svg>
