<svg width="24" height="24" viewBox="0 0 24 24" fill="none" xmlns="http://www.w3.org/2000/svg">
<path fill-rule="evenodd" clip-rule="evenodd" d="M8.91285 7.04422C8.91285 6.55494 9.03345 6.00207 9.27415 5.3819L1.27739 5.38238L1.2042 5.38789L1.11387 5.40223C0.959357 5.43475 0.821013 5.50441 0.706609 5.60022C0.684083 5.61893 0.662219 5.63885 0.641101 5.65997L0.585935 5.71995L0.533324 5.78849L0.499733 5.84003L0.453068 5.92725C0.359196 6.12571 0.332649 6.35799 0.397938 6.58814L0.414806 6.64169L0.428965 6.67991L3.52178 14.5313L3.55758 14.6082L3.61371 14.7022L3.67217 14.7794L3.70659 14.8182L10.6197 22.2072L10.6526 22.2382L10.7161 22.2905L10.7739 22.331L10.8152 22.3558L10.9061 22.4019L10.9759 22.4293L11.0691 22.4564C11.117 22.4678 11.166 22.4755 11.2158 22.4792L11.2854 22.4819L11.3475 22.48L11.4072 22.4744C11.4459 22.4792 11.4853 22.4817 11.5254 22.4817H21.0254L21.0963 22.4791L21.1432 22.4742C21.6279 22.5363 22.0875 22.2173 22.1918 21.7308L23.6168 15.0808L23.6258 15.0337L23.636 14.9434L23.638 14.8757L23.6346 14.8L23.6199 14.6966L23.5985 14.6104L23.5722 14.5344L23.5415 14.4647L23.5101 14.4059L23.4537 14.3192L23.3971 14.2495L23.3329 14.1841L23.2759 14.1354L17.2701 9.40775C16.9325 9.95578 16.481 10.4262 15.9486 10.7859L19.9452 13.9317H10.2567L3.60666 7.28172L8.919 7.28177C8.91492 7.2031 8.91285 7.1239 8.91285 7.04422ZM11.0381 15.8317H21.5123L20.4949 20.5817H12.0555L11.0381 15.8317Z" fill="#242B42"/>
<path d="M13.4254 1.51807L13.6155 1.75621L14.0248 2.28229L14.2803 2.6213C14.4046 2.78845 14.5236 2.95206 14.6375 3.11209L14.8583 3.42737L14.9635 3.58141L15.1635 3.88226L15.3496 4.17339L15.4375 4.31529L15.6029 4.59174C16.2103 5.63256 16.5129 6.4557 16.5129 7.04422C16.5129 8.7494 15.1306 10.1317 13.4254 10.1317C11.7202 10.1317 10.3379 8.7494 10.3379 7.04422C10.3379 6.4557 10.6404 5.63256 11.2479 4.59174L11.4133 4.31529L11.5011 4.17339L11.6873 3.88226L11.8873 3.58141L11.9925 3.42737L12.2133 3.11209C12.2892 3.0054 12.3674 2.89712 12.4479 2.78727L12.7608 2.36792L13.0954 1.9339L13.2353 1.75621L13.4254 1.51807Z" fill="#242B42"/>
</svg>
