<svg width="24" height="24" viewBox="0 0 24 24" fill="none" xmlns="http://www.w3.org/2000/svg">
<path d="M2.77605 6.5L2.77601 17.4809C2.77601 18.2087 3.42207 18.7986 4.21905 18.7986L19.9445 18.7986C19.9445 19.7343 19.2051 20.4992 18.2728 20.5526L18.1684 20.5556H2.77605C1.83019 20.5556 1.05703 19.8242 1.00301 18.9019L1 18.7986V8.25695C1 7.32127 1.73938 6.55642 2.67169 6.50298L2.77605 6.5Z" fill="#242B42"/>
<path fill-rule="evenodd" clip-rule="evenodd" d="M22.997 5.09815C22.943 4.17585 22.1698 3.44443 21.224 3.44443H5.83156L5.7272 3.44741C4.79488 3.50085 4.05551 4.26569 4.05551 5.20138V15.7431L4.05852 15.8463C4.11254 16.7686 4.8857 17.5 5.83156 17.5H21.224L21.3283 17.497C22.2606 17.4436 23 16.6788 23 15.7431V5.20138L22.997 5.09815ZM7.32124 5.27773H19.7345C20.4973 5.27773 21.1208 5.81835 21.1643 6.50004L21.1668 6.57635V14.368L21.1634 14.4575C21.1146 15.1078 20.5378 15.6267 19.8186 15.6644L19.7345 15.6666H17.519L17.5195 12.2558C17.8005 12.3776 18.1343 12.2719 18.2911 12.0003C18.4599 11.708 18.3597 11.3343 18.0674 11.1655L17.4964 10.8358L17.5001 10.7777V9.55552C17.5001 9.21801 17.2265 8.94441 16.889 8.94441C16.5515 8.94441 16.2779 9.21801 16.2779 9.55552V10.1318L13.8335 8.72108C13.7289 8.6607 13.6139 8.63474 13.5019 8.63938C13.3923 8.63608 13.2804 8.66223 13.1785 8.72108L8.94461 11.1655L8.88495 11.2047C8.63939 11.3873 8.56423 11.7289 8.72093 12.0003L8.76012 12.06C8.94266 12.3055 9.28431 12.3807 9.55572 12.224L9.57457 12.2126V15.6666H7.32124L7.22258 15.6636C6.50533 15.6194 5.93305 15.0964 5.89138 14.4443L5.88895 14.368V6.57635L5.89229 6.48689C5.94109 5.83659 6.51791 5.31772 7.23709 5.27994L7.32124 5.27773Z" fill="#242B42"/>
</svg>
