<svg width="24" height="24" viewBox="0 0 24 24" fill="none" xmlns="http://www.w3.org/2000/svg">
<path fill-rule="evenodd" clip-rule="evenodd" d="M15.5077 13.26C15.8065 13.2065 16.1053 13.153 16.4041 13.0923C16.5527 13.062 16.6951 13.0333 16.8325 13.0055L16.8333 13.0054L16.8337 13.0053C17.1171 12.9481 17.379 12.8952 17.628 12.8424C17.6092 12.8868 17.5889 12.9337 17.5673 12.9834L17.5668 12.9844L17.5668 12.9845C17.5434 13.0384 17.5186 13.0955 17.4928 13.1565L16.8737 14.5808H14.9313L15.5076 13.26L15.5077 13.26ZM8.99364 13.8133C9.69093 13.8347 10.3918 13.824 11.0926 13.7919L10.7547 14.5772H8.66278L8.99364 13.8133ZM14.2696 9.17645L14.4403 9.4406L14.6182 9.70475L13.7644 10.2545H12.6331L11.3345 13.2422C10.6266 13.3029 9.91506 13.3386 9.19998 13.3457L10.5412 10.258H9.30315L9.77276 9.17645H14.2696ZM4.21221 11.6109L5.26882 9.18002V9.18359H7.02272L5.34709 13.0352H5.34353C4.46836 12.8924 3.62521 12.6889 2.82119 12.4069L2.81763 12.1285L2.71446 12.3676H2.7109C2.20572 12.1856 1.71477 11.9679 1.24516 11.7216L2.34802 9.18002H4.09837L4.21221 11.6109ZM1.18824 11.8536C1.60092 12.1106 2.08476 12.3534 2.60773 12.5711C2.60993 12.5711 2.61213 12.5725 2.61516 12.5744C2.61704 12.5755 2.61924 12.5769 2.62196 12.5783L1.75034 14.5844H0L1.18824 11.8536ZM2.82119 12.6568C3.57184 12.9531 4.39365 13.1958 5.20123 13.3528L4.66759 14.5808H2.83542L2.82119 12.6568ZM5.11229 14.5808L5.59612 13.4706C6.25428 13.5849 6.916 13.667 7.57771 13.7241L7.20416 14.5808H5.11229ZM5.74198 13.1387L7.46387 9.18002H9.55219L7.75559 13.3136C7.06897 13.285 6.39658 13.2279 5.74198 13.1387ZM12.2062 14.5808L12.6046 13.667C13.341 13.5956 14.081 13.4956 14.821 13.3778L14.298 14.5808H12.2062ZM18.0086 9.25498C18.3359 9.30496 18.5636 9.43703 18.6917 9.64764C18.8198 9.85824 18.7842 10.1938 18.5885 10.6543C18.4071 11.0719 18.2043 11.3575 17.9873 11.5002C17.7703 11.6466 17.4252 11.7323 16.9556 11.7608C17.3398 11.8322 17.5782 11.925 17.6707 12.0392L17.6707 12.0393C17.6849 12.0571 17.6991 12.075 17.7098 12.0928C17.708 12.0928 17.7071 12.0937 17.7062 12.0946C17.7053 12.0955 17.7045 12.0964 17.7027 12.0964V12.0928C17.0765 12.257 16.4468 12.4069 15.8171 12.5426C15.8669 12.3926 15.8776 12.2963 15.8527 12.2499C15.8136 12.182 15.6499 12.1463 15.3618 12.1463L15.127 12.6853C14.3799 12.8353 13.6292 12.9638 12.8714 13.0637L14.0561 10.333L14.8957 9.75115L14.6396 9.32637L14.5542 9.18002H16.0377C17.0232 9.18002 17.6813 9.20501 18.0086 9.25498ZM16.6994 10.5186L16.5714 10.8149C16.4682 11.054 16.3579 11.1933 16.2476 11.2361C16.1338 11.2789 15.9594 11.3003 15.7246 11.3003L16.2476 10.0974C16.4895 10.0974 16.6461 10.1224 16.7137 10.1759C16.7777 10.2366 16.7741 10.3473 16.6994 10.5186ZM23.2276 9.33708C23.5265 9.42989 23.7399 9.57267 23.868 9.76186C23.9925 9.95105 24.0281 10.1581 23.9783 10.3794C23.9214 10.6007 23.772 10.9898 23.53 11.5466L23.128 12.4712C22.8932 13.0137 22.7047 13.3993 22.5695 13.6241C22.4343 13.849 22.2244 14.0561 21.9433 14.2417C21.6623 14.4309 21.3279 14.5736 20.9437 14.6736C20.5559 14.7735 20.1396 14.8235 19.6843 14.8235C19.2538 14.8235 18.8874 14.7735 18.585 14.6807C18.2826 14.5879 18.0691 14.4451 17.941 14.2559C17.8165 14.0668 17.7809 13.8597 17.8379 13.6384C17.8877 13.4421 18.0086 13.1208 18.1972 12.6746C19.0012 12.4962 19.6949 12.3212 20.5345 12.0714V12.0678C20.5416 12.0678 20.5488 12.0642 20.5523 12.0607L20.0507 13.2172C19.9155 13.5313 19.8479 13.7241 19.855 13.799C19.8586 13.874 19.9333 13.9097 20.072 13.9097C20.2143 13.9097 20.3246 13.8669 20.3993 13.7812C20.4776 13.6955 20.5843 13.4956 20.7231 13.1779L21.801 10.6935C21.9113 10.4436 21.9611 10.283 21.9505 10.2116C21.9398 10.1438 21.8686 10.1081 21.7406 10.1081C21.6303 10.1081 21.5342 10.1367 21.4524 10.1938C21.3706 10.2509 21.2674 10.4187 21.1464 10.6971L20.9543 11.1397C20.9437 11.1361 20.9294 11.1433 20.9188 11.1504C20.2535 11.3646 19.6665 11.5359 18.8909 11.7501C18.8358 11.7644 18.7797 11.7796 18.7237 11.7947C18.6677 11.8099 18.6116 11.8251 18.5565 11.8394L18.6846 11.5466C18.9194 11.0041 19.1079 10.6186 19.2431 10.3937C19.3783 10.1688 19.5882 9.96176 19.8693 9.77614C20.1503 9.58695 20.4847 9.44417 20.8689 9.34422C21.2567 9.24427 21.673 9.1943 22.1283 9.1943C22.5588 9.1943 22.9252 9.2407 23.2276 9.33708Z" fill="#242B42"/>
</svg>
